<?xml version="1.0" standalone="no"?>
<!DOCTYPE svg PUBLIC "-//W3C//DTD SVG 20010904//EN"
 "http://www.w3.org/TR/2001/REC-SVG-20010904/DTD/svg10.dtd">
<svg version="1.0" xmlns="http://www.w3.org/2000/svg"
 width="400.000000pt" height="400.000000pt" viewBox="0 0 400.000000 400.000000"
 preserveAspectRatio="xMidYMid meet">
<g transform="translate(0.000000,400.000000) scale(0.100000,-0.100000)"
fill="#fff" stroke="none">
<path d="M1555 3818 c4 -24 11 -50 15 -58 4 -8 10 -31 11 -50 l4 -35 -54 -5
c-36 -3 -58 -11 -65 -22 -15 -24 -3 -31 62 -40 134 -17 135 -18 127 -47 -3
-14 -9 -38 -12 -53 -3 -16 -8 -28 -12 -28 -4 0 -13 -21 -20 -47 -25 -94 -77
-236 -103 -288 -25 -48 -98 -126 -153 -164 -56 -39 -187 -91 -256 -102 -96
-15 -204 20 -300 98 -59 48 -122 144 -166 253 -6 14 -27 61 -46 105 -20 44
-43 109 -51 144 -8 34 -17 65 -19 67 -12 12 -37 -12 -42 -39 -3 -18 -7 -543
-11 -1167 -8 -1609 -8 -1649 1 -1808 7 -131 10 -144 28 -151 11 -4 516 -8
1121 -9 713 0 1126 -4 1171 -11 87 -13 312 -14 320 -2 9 16 -34 48 -83 62 -26
7 -70 25 -98 41 -28 15 -58 28 -67 28 -30 0 -220 238 -272 340 -62 123 -96
276 -95 432 0 131 12 193 56 283 37 79 95 132 259 239 49 33 92 62 95 65 3 3
15 12 28 19 12 6 31 17 41 24 40 25 70 -49 41 -102 -15 -28 12 -44 63 -37 23
3 62 2 86 -4 77 -17 112 14 49 44 -43 20 -102 82 -93 97 4 6 29 10 60 9 58 -3
85 11 85 42 0 28 -33 40 -93 33 -47 -6 -57 -4 -76 15 -31 31 -26 55 19 98 33
30 40 44 38 68 -3 26 -7 30 -33 30 -25 0 -33 -6 -48 -39 -16 -33 -21 -37 -28
-24 -11 20 -12 47 -3 123 5 49 3 63 -10 74 -22 18 -44 -1 -48 -42 -3 -30 -5
-32 -45 -33 -82 -1 -98 -53 -35 -113 53 -51 80 -104 63 -125 -8 -9 -19 -16
-26 -16 -7 0 -19 -7 -26 -16 -7 -9 -20 -19 -29 -23 -17 -7 -193 -121 -309
-201 -27 -18 -47 -24 -83 -23 -61 3 -173 47 -242 97 -91 67 -117 127 -119 276
-2 170 46 312 166 489 92 138 158 211 189 211 23 0 25 -8 32 -85 8 -102 18
-154 33 -166 18 -16 26 -6 38 49 9 39 14 46 30 43 11 -2 36 -4 55 -5 32 -1 35
1 38 31 4 38 -26 63 -75 63 -35 0 -42 7 -53 56 -8 37 -1 47 40 57 42 11 82 49
74 71 -6 14 -14 17 -40 12 -19 -3 -50 -9 -69 -12 -47 -9 -46 4 10 91 44 68 45
70 24 80 -22 9 -41 -7 -107 -94 -13 -17 -30 -31 -38 -31 -15 0 -17 7 -18 95
-1 48 -4 60 -18 63 -12 2 -19 -5 -23 -25 -17 -80 -28 -104 -49 -101 -20 3 -32
32 -53 132 -10 49 -36 68 -60 44 -14 -15 -15 -22 -4 -56 16 -49 1 -117 -29
-125 -21 -6 -48 -53 -36 -65 4 -4 56 -9 114 -12 92 -4 107 -7 107 -22 0 -21
-182 -274 -249 -346 -51 -56 -159 -104 -242 -110 -68 -4 -74 -3 -125 30 -64
41 -131 111 -152 159 -38 86 -59 152 -76 237 -23 107 -17 176 22 292 14 41 30
91 36 110 29 103 100 280 112 280 5 0 39 -29 76 -65 37 -36 73 -65 80 -65 8 0
13 12 13 29 0 15 9 40 21 55 27 34 19 53 -26 62 -47 9 -54 29 -21 63 14 15 26
32 26 39 0 19 -25 14 -45 -8 -13 -14 -31 -20 -61 -20 -24 0 -45 3 -47 8 -3 4
1 25 9 47 7 22 14 55 14 73 0 54 -30 37 -52 -28 -22 -67 -39 -100 -50 -100 -4
0 -8 8 -8 17 0 15 -13 62 -30 108 -4 11 -13 39 -20 63 -11 34 -18 42 -37 42
-23 0 -24 -2 -18 -42z m-123 -904 c4 -3 -4 -36 -17 -72 -13 -37 -46 -137 -73
-222 -28 -85 -62 -186 -75 -225 -14 -38 -28 -83 -32 -100 -12 -54 -73 -169
-112 -211 -21 -22 -57 -53 -80 -68 -38 -26 -54 -29 -150 -33 -100 -5 -112 -3
-165 20 -58 26 -128 90 -155 140 -33 65 5 137 166 309 78 83 267 241 341 285
19 12 88 49 153 82 66 33 131 70 145 81 28 20 44 24 54 14z m563 -575 c10 -16
-2 -51 -28 -79 -12 -14 -63 -79 -112 -145 -165 -222 -195 -261 -225 -290 -30
-28 -35 -30 -108 -28 -99 3 -156 23 -210 76 -49 48 -72 85 -72 120 0 24 43 99
87 151 73 87 225 155 438 194 72 13 222 14 230 1z m-921 -428 c6 -10 -24 -117
-56 -196 -11 -27 -24 -59 -28 -70 -5 -11 -16 -40 -25 -65 -38 -103 -160 -353
-179 -369 -12 -10 -31 -10 -86 -2 -79 13 -128 33 -137 58 -15 39 54 220 129
339 45 71 177 201 261 258 80 54 110 65 121 47z m996 -158 c41 -14 102 -38
135 -54 33 -15 88 -37 122 -49 36 -13 60 -27 57 -34 -7 -17 -147 -118 -246
-178 -48 -29 -129 -80 -180 -112 -81 -52 -100 -60 -143 -60 -69 -1 -106 17
-134 67 -23 39 -24 51 -23 181 1 131 2 140 26 177 33 48 93 80 171 89 80 9
125 3 215 -27z m-583 -84 c15 -15 2 -50 -40 -103 -35 -44 -202 -231 -279 -311
-26 -28 -59 -65 -72 -84 -49 -67 -97 -111 -119 -111 -27 0 -87 52 -87 75 0 43
131 237 224 331 78 78 186 153 274 190 65 26 83 29 99 13z m150 -475 c46 -29
27 -52 -97 -116 -63 -32 -121 -65 -130 -72 -59 -50 -230 -136 -270 -136 -40 0
-100 30 -100 50 0 9 17 32 38 52 47 46 246 176 281 185 14 3 36 13 48 21 63
40 181 49 230 16z m461 -86 c98 -34 326 -229 458 -393 26 -33 52 -64 56 -70
63 -78 128 -170 125 -178 -2 -7 -134 -9 -371 -8 -381 2 -407 5 -471 47 -27 18
-91 107 -113 157 -27 63 -1 255 49 362 23 48 72 95 111 107 31 9 81 1 156 -24z
m-1393 -149 c-25 -57 -49 -113 -54 -124 -62 -149 -88 -192 -103 -177 -26 26
70 333 125 401 18 22 51 30 65 17 10 -10 4 -33 -33 -117z m860 -163 c17 -10
54 -46 83 -80 51 -60 152 -215 152 -234 0 -18 -42 -21 -308 -22 l-263 -1 -29
31 c-38 40 -54 92 -47 150 17 140 82 182 272 177 86 -2 117 -6 140 -21z m-558
-262 c50 -10 74 -76 32 -89 -40 -13 -394 9 -404 25 -4 7 66 39 125 56 62 18
179 22 247 8z"/>
</g>
</svg>
